# xmcd
#
# Track frame offsets:
#	150
#	19287
#	37029
#	55580
#	75308
#	96528
#	120062
#	139636
#	157286
#	174318
#	188936
#	211685
#	235462
#	254057
#	274146
#
# Disc length: 3899
#
# Revision: 1
# Processed by: cddbd v1.5.1PL0 Copyright (c) Steve Scherf et al.
# Submitted via: dBpowerAMP V4.0
# Normalized: r0:TDELIM( - )
#
DISCID=ce0f390f
DTITLE=Various Artist - Bob Harris Presents
DYEAR=1900
DGENRE=
TTITLE0=Trish Murphy - Me Behind the Wheel
TTITLE1=Dolly Varden - The Dumbest Magnets
TTITLE2=Steve Earle - I'm still in Love with You
TTITLE3=Kate Rusby - The Wild Goose
TTITLE4=Eva Cassidy - Fields of Gold
TTITLE5=Walter Trout - Nothin but the Blues
TTITLE6=Eric Bibb - World war Blues
TTITLE7=Whiskeytown - 16 Days
TTITLE8=Alison Krauss - Maybe
TTITLE9=Emmylou Harris - Love Hurts
TTITLE10=Vigilantes of Love - Resplendent
TTITLE11=Judie Tzuke - Tonight
TTITLE12=Sinead Lohan - No Mermaid
TTITLE13=Todd Thibaud - Little Mystery
TTITLE14=David Munyon - Super Blue
EXTD=
EXTT0=
EXTT1=
EXTT2=
EXTT3=
EXTT4=
EXTT5=
EXTT6=
EXTT7=
EXTT8=
EXTT9=
EXTT10=
EXTT11=
EXTT12=
EXTT13=
EXTT14=
PLAYORDER=
